<svg xmlns="http://www.w3.org/2000/svg" width="256" height="256" viewBox="0 0 100 100"><rect width="100" height="100" rx="20" fill="#7d6ee7"></rect><path fill="#fff" d="M24.76 74.16L24.76 74.16Q28.54 74.16 31.01 73.40Q33.49 72.64 34.57 71.91L34.57 71.91L34.57 58.86L23.41 60.03Q18.73 60.48 16.48 62.15Q14.23 63.81 14.23 67.06L14.23 67.06Q14.23 70.47 16.84 72.32Q19.45 74.16 24.76 74.16ZM24.67 36.09L24.67 36.09Q32.50 36.09 37.09 39.60Q41.68 43.12 41.68 50.67L41.68 50.67L41.68 72.00Q41.68 73.98 40.91 75.02Q40.15 76.05 38.62 76.95L38.62 76.95Q36.46 78.22 32.90 79.16Q29.35 80.11 24.76 80.11L24.76 80.11Q16.30 80.11 11.66 76.78Q7.03 73.44 7.03 67.14L7.03 67.14Q7.03 61.20 10.90 58.19Q14.77 55.17 21.79 54.45L21.79 54.45L34.57 53.20L34.57 50.67Q34.57 46.17 31.87 44.10Q29.17 42.04 24.58 42.04L24.58 42.04Q20.80 42.04 17.47 43.12Q14.14 44.20 11.53 45.55L11.53 45.55Q10.81 44.91 10.22 44.10Q9.64 43.30 9.64 42.30L9.64 42.30Q9.64 41.05 10.27 40.23Q10.90 39.42 12.25 38.70L12.25 38.70Q14.68 37.45 17.83 36.77Q20.98 36.09 24.67 36.09ZM73.36 36.09L73.36 36.09Q77.50 36.09 81.09 37.45Q84.69 38.80 87.35 41.49Q90.00 44.20 91.49 48.34Q92.97 52.48 92.97 58.05L92.97 58.05Q92.97 63.73 91.44 67.86Q89.92 72.00 87.17 74.70Q84.43 77.41 80.56 78.71Q76.69 80.02 72.09 80.02L72.09 80.02Q67.69 80.02 64.13 78.98Q60.58 77.94 58.33 76.59L58.33 76.59Q56.44 75.42 55.72 74.30Q55.00 73.17 55.00 71.28L55.00 71.28L55.00 20.52Q55.45 20.34 56.39 20.12Q57.34 19.90 58.42 19.90L58.42 19.90Q62.20 19.90 62.20 23.13L62.20 23.13L62.20 39.24Q64.18 37.98 66.92 37.04Q69.67 36.09 73.36 36.09ZM72.28 42.04L72.28 42.04Q69.13 42.04 66.56 43.16Q64.00 44.28 62.20 45.81L62.20 45.81L62.20 71.28Q63.55 72.28 66.11 73.17Q68.68 74.08 72.09 74.08L72.09 74.08Q75.16 74.08 77.63 73.13Q80.11 72.19 81.91 70.20Q83.71 68.22 84.69 65.21Q85.69 62.20 85.69 58.05L85.69 58.05Q85.69 53.91 84.69 50.86Q83.71 47.80 81.91 45.86Q80.11 43.92 77.63 42.98Q75.16 42.04 72.28 42.04Z"></path></svg>