
        <svg xmlns="http://www.w3.org/2000/svg" xmlns:xlink="http://www.w3.org/1999/xlink" version="1.1" width="100%" height="100%" viewBox="0 -58.3635781383433 3160.1195559350986 1179.769783660689">
			
			<g transform="scale(8.00597779675491) translate(10, 10)">
				<defs id="SvgjsDefs2015"/><g id="SvgjsG2016" featureKey="nYIUkx-0" transform="matrix(1.200732003963001,0,0,1.200732003963001,0.000331420212315871,-7.295421688122667)" fill="#000"><g xmlns="http://www.w3.org/2000/svg"><path d="M27.308,9.444c1.303,1.791,1.771,3.327,1.387,4.566c-0.513,1.672-2.472,2.392-2.492,2.398   c-0.531,0.188-0.812,0.772-0.625,1.308c0.146,0.423,0.543,0.688,0.968,0.688c0.112,0,0.227-0.018,0.339-0.058   c0.119-0.04,2.936-1.051,3.768-3.709c0.592-1.895,0.025-4.048-1.807-6.539c-0.625-0.597-2.181-2.474-1.875-3.956   c0.18-0.872,1.035-1.594,2.535-2.149c0.533-0.196,0.803-0.786,0.607-1.317c-0.197-0.533-0.789-0.808-1.318-0.607   c-2.214,0.816-3.505,2.049-3.836,3.666C24.372,6.584,27.117,9.286,27.308,9.444z"/><path d="M36.519,9.444c1.303,1.791,1.77,3.327,1.387,4.566c-0.514,1.672-2.473,2.392-2.492,2.398   c-0.531,0.188-0.812,0.772-0.625,1.308c0.146,0.423,0.543,0.688,0.968,0.688c0.112,0,0.227-0.018,0.339-0.058   c0.119-0.04,2.936-1.051,3.768-3.709c0.592-1.895,0.026-4.048-1.807-6.539c-0.625-0.597-2.182-2.474-1.875-3.956   c0.181-0.872,1.035-1.594,2.535-2.149c0.533-0.196,0.804-0.786,0.607-1.317c-0.197-0.533-0.788-0.808-1.317-0.607   c-2.214,0.816-3.505,2.049-3.836,3.666C33.583,6.584,36.327,9.286,36.519,9.444z"/><path d="M17.759,9.444c1.304,1.791,1.771,3.327,1.388,4.566c-0.513,1.672-2.472,2.392-2.492,2.398   c-0.531,0.188-0.812,0.772-0.625,1.308c0.146,0.423,0.543,0.688,0.968,0.688c0.112,0,0.227-0.018,0.339-0.058   c0.118-0.04,2.936-1.051,3.768-3.709c0.592-1.895,0.026-4.048-1.807-6.539c-0.625-0.597-2.182-2.474-1.875-3.956   c0.18-0.872,1.032-1.594,2.532-2.149c0.533-0.196,0.804-0.786,0.607-1.317c-0.196-0.533-0.788-0.808-1.317-0.607   c-2.213,0.816-3.503,2.049-3.833,3.663C14.823,6.584,17.568,9.286,17.759,9.444z"/><path d="M55.821,38.655l-0.826-5.797c-0.072-0.507-0.505-0.882-1.017-0.882h-1.678l-2.583-6.306   c-0.158-0.385-0.533-0.638-0.95-0.638H6.236c-0.431,0-0.816,0.269-0.964,0.674l-2.3,6.27H1.893c-0.511,0-0.944,0.375-1.017,0.882   L0.01,38.934c-0.042,0.294,0.046,0.591,0.241,0.818c0.196,0.225,0.479,0.353,0.776,0.353h2.557l6.839,58.987   c0.061,0.518,0.5,0.908,1.021,0.908h32.985c0.521,0,0.96-0.391,1.021-0.908l6.839-58.987h2.557c0.015,0,0.03,0,0.04,0   c0.567,0,1.027-0.459,1.027-1.026C55.912,38.928,55.88,38.783,55.821,38.655z M6.954,27.085h41.124l2.003,4.891H5.16L6.954,27.085z    M43.514,97.947H12.358l-1.833-15.803h34.821L43.514,97.947z M42.575,55.989c-2.612,2.224-4.236,5.749-4.236,9.201   c0,5.715,3.341,10.447,7.67,11.241l-0.424,3.659H10.287L6.894,50.832h42.083l-0.343,2.953   C46.506,53.716,44.386,54.447,42.575,55.989z M49.217,48.779H6.657l-1.006-8.674h44.57L49.217,48.779z M51.374,38.051H4.498H2.21   l0.574-4.022h50.305l0.573,4.022H51.374z"/></g></g><g id="SvgjsG2017" featureKey="PXhRQw-0" transform="matrix(1.4288779795318198,0,0,1.4288779795318198,91.86039981402098,41.08351488973517)" fill="#000"><path d="M12.881 17.4609 l-7.4805 0 l-1.2598 2.5391 l-4.043 0 l7.0215 -13.418 l4.043 0 l7.0215 13.418 l-4.043 0 z M6.6992 14.8437 l4.9023 0 l-2.4414 -4.9414 z M33.164249999999996 20 l0.000038147 -7.5195 c0 -0.5013 -0.042314 -0.9554 -0.12695 -1.3623 s-0.24252 -0.75521 -0.47364 -1.0449 s-0.55339 -0.51433 -0.9668 -0.67383 s-0.94563 -0.23926 -1.5967 -0.23926 c-0.49479 0 -1.014 0.066729 -1.5576 0.2002 s-1.0823 0.31088 -1.6162 0.53224 s-1.0433 0.47852 -1.5283 0.77148 s-0.91635 0.59896 -1.2939 0.91797 l0 8.418 l-3.623 0 l0 -13.418 l3.623 0 l0 1.8359 c0.45573 -0.26042 0.94076 -0.51921 1.4551 -0.77637 s1.0612 -0.4899 1.6406 -0.69823 s1.1946 -0.3776 1.8457 -0.5078 s1.3379 -0.19531 2.0605 -0.19531 c0.90495 0 1.7139 0.10905 2.4268 0.32715 s1.3167 0.52734 1.8115 0.92773 s0.87402 0.88542 1.1377 1.4551 s0.39551 1.2061 0.39551 1.9092 l0 9.1406 l-3.6133 0 z M49.795359375000004 13.1152 l6.3672 6.8848 l-4.3457 0 l-4.1992 -4.5215 l-4.1797 4.5215 l-4.3359 0 l6.3574 -6.8848 l-6.0449 -6.5332 l4.3457 0 l3.8574 4.1992 l3.877 -4.1992 l4.3457 0 z M58.535146875 20 l0 -13.418 l3.623 0 l0 13.418 l-3.623 0 z M83.7208125 13.300799999999999 c0 1.1523 -0.21159 2.1696 -0.63477 3.0518 s-1.0286 1.6194 -1.8164 2.2119 s-1.7432 1.04 -2.8662 1.3428 s-2.3845 0.4541 -3.7842 0.4541 s-2.6644 -0.15137 -3.7939 -0.4541 s-2.0915 -0.75032 -2.8857 -1.3428 s-1.4063 -1.3298 -1.8359 -2.2119 s-0.64453 -1.8994 -0.64453 -3.0518 s0.21484 -2.1696 0.64453 -3.0518 s1.0417 -1.6194 1.8359 -2.2119 s1.7562 -1.04 2.8857 -1.3428 s2.3942 -0.4541 3.7939 -0.4541 s2.6611 0.15137 3.7842 0.4541 s2.0784 0.75032 2.8662 1.3428 s1.3933 1.3298 1.8164 2.2119 s0.63477 1.8994 0.63477 3.0518 z M80.0588125 13.300799999999999 c0 -0.5013 -0.079756 -1.001 -0.23926 -1.499 s-0.44271 -0.94563 -0.84961 -1.3428 s-0.96191 -0.7194 -1.665 -0.9668 s-1.5983 -0.37109 -2.6855 -0.37109 c-0.72917 0 -1.3704 0.056963 -1.9238 0.1709 s-1.0319 0.27182 -1.4355 0.47364 s-0.74219 0.43783 -1.0156 0.70802 s-0.49153 0.5599 -0.6543 0.86915 s-0.27832 0.63151 -0.34668 0.9668 s-0.10254 0.66568 -0.10254 0.99121 c0 0.33203 0.03418 0.66731 0.10254 1.0059 s0.18392 0.66244 0.34668 0.97169 s0.38086 0.59733 0.6543 0.86426 s0.61198 0.49967 1.0156 0.69823 s0.88216 0.35481 1.4355 0.46875 s1.1946 0.1709 1.9238 0.1709 c1.0872 0 1.9824 -0.1237 2.6855 -0.37109 s1.2581 -0.56966 1.665 -0.9668 s0.69011 -0.84473 0.84961 -1.3428 s0.23926 -0.99775 0.23926 -1.499 z M90.585975 6.582000000000001 l-0.000019073 7.5586 c0 0.5013 0.042314 0.9554 0.12695 1.3623 s0.24089 0.75521 0.46875 1.0449 s0.54688 0.51433 0.95703 0.67383 s0.94401 0.23926 1.6016 0.23926 c0.49479 0 1.014 -0.068359 1.5576 -0.20508 s1.0823 -0.31901 1.6162 -0.54688 s1.0433 -0.4899 1.5283 -0.78612 s0.9196 -0.60384 1.3037 -0.92285 l0 -8.418 l3.6133 0 l0 13.418 l-3.6133 0 l0 -1.8359 c-0.45573 0.26042 -0.94076 0.52246 -1.4551 0.78613 s-1.0612 0.5013 -1.6406 0.71289 s-1.1946 0.38412 -1.8457 0.51759 s-1.3379 0.2002 -2.0605 0.2002 c-0.90495 0 -1.7155 -0.10905 -2.4316 -0.32715 s-1.3216 -0.52734 -1.8164 -0.92773 s-0.87402 -0.88542 -1.1377 -1.4551 s-0.39551 -1.2061 -0.39551 -1.9092 l0 -9.1797 l3.623 0 z M119.921984375 10.3613 c-0.25391 -0.1237 -0.58916 -0.26372 -1.0059 -0.41997 s-0.88867 -0.30437 -1.416 -0.44434 s-1.1003 -0.25716 -1.7188 -0.35156 s-1.2532 -0.1416 -1.9043 -0.1416 c-0.52083 0 -0.96517 0.016279 -1.333 0.048828 s-0.67709 0.074863 -0.92774 0.12694 s-0.44922 0.1123 -0.5957 0.18066 s-0.25879 0.13835 -0.33691 0.20996 s-0.12858 0.14322 -0.15137 0.21483 s-0.03418 0.13672 -0.03418 0.19531 c0 0.19531 0.097656 0.36621 0.29297 0.5127 s0.46224 0.27669 0.80078 0.39063 s0.73242 0.22136 1.1816 0.32227 s0.9261 0.20508 1.4307 0.3125 s1.0254 0.22461 1.5625 0.35156 s1.0579 0.27507 1.5625 0.44434 s0.98145 0.36621 1.4307 0.59082 s0.8431 0.48665 1.1816 0.78613 s0.60547 0.64453 0.80078 1.0352 s0.29297 0.83659 0.29297 1.3379 c0 0.64453 -0.11394 1.1979 -0.3418 1.6602 s-0.53223 0.85286 -0.91309 1.1719 s-0.82194 0.57455 -1.3232 0.76661 s-1.0271 0.34018 -1.5771 0.44435 s-1.1067 0.17253 -1.6699 0.20508 s-1.0986 0.048828 -1.6064 0.048828 c-1.3281 0 -2.5569 -0.10905 -3.6865 -0.32715 s-2.1272 -0.4899 -2.9932 -0.81542 l0 -3.2031 c0.89192 0.49479 1.9092 0.88217 3.0518 1.1621 s2.3649 0.41992 3.667 0.41992 c0.76823 0 1.3948 -0.040693 1.8799 -0.12207 s0.86426 -0.18555 1.1377 -0.3125 s0.45898 -0.2653 0.55664 -0.41504 s0.14648 -0.29297 0.14648 -0.42969 c0 -0.21484 -0.097656 -0.40202 -0.29297 -0.56152 s-0.46224 -0.29947 -0.80078 -0.41991 s-0.73242 -0.23111 -1.1816 -0.33202 s-0.9261 -0.20182 -1.4307 -0.30272 s-1.0237 -0.20996 -1.5576 -0.32715 s-1.053 -0.25554 -1.5576 -0.41504 s-0.98145 -0.34505 -1.4307 -0.55664 s-0.8431 -0.46225 -1.1816 -0.75196 s-0.60547 -0.625 -0.80078 -1.0059 s-0.29297 -0.82194 -0.29297 -1.3232 c0 -0.59245 0.10417 -1.1035 0.3125 -1.5332 s0.4899 -0.7959 0.84472 -1.0986 s0.76497 -0.54851 1.2305 -0.7373 s0.95541 -0.33528 1.4697 -0.43945 s1.0352 -0.17578 1.5625 -0.21484 s1.0286 -0.058594 1.5039 -0.058594 c0.52083 0 1.0563 0.026045 1.6064 0.078125 s1.0921 0.12532 1.626 0.21973 s1.0498 0.20346 1.5479 0.32716 s0.95866 0.25391 1.3818 0.39063 l0 3.1055 z M139.76528125 16.2988 c0 0.52083 -0.068369 0.97333 -0.20509 1.3574 s-0.32715 0.71451 -0.57129 0.99121 s-0.53711 0.5013 -0.87891 0.67383 s-0.7194 0.30925 -1.1328 0.41016 s-0.85449 0.1709 -1.3232 0.20996 s-0.95378 0.058594 -1.4551 0.058594 l-9.7363 0 l0 -13.418 l9.5605 0 c0.38411 0 0.76985 0.016279 1.1572 0.048828 s0.75684 0.092773 1.1084 0.18066 s0.67871 0.20996 0.98145 0.36621 s0.56641 0.36133 0.79102 0.61523 s0.40039 0.55989 0.52734 0.91797 s0.19043 0.78125 0.19043 1.2695 c0 0.87239 -0.21484 1.5642 -0.64453 2.0752 s-1.1067 0.85123 -2.0313 1.0205 c0.65104 0.045576 1.2093 0.14486 1.6748 0.29786 s0.84473 0.36133 1.1377 0.625 s0.50781 0.58594 0.64453 0.9668 s0.20508 0.8252 0.20508 1.333 z M135.24428125 10.5566 c0 -0.16927 -0.026045 -0.3304 -0.078125 -0.4834 s-0.14648 -0.28809 -0.2832 -0.40527 s-0.32227 -0.21159 -0.55664 -0.2832 s-0.53386 -0.10742 -0.89844 -0.10742 l-5.3418 0 l0 2.5195 l5.3418 0 c0.36458 0 0.66406 -0.032549 0.89844 -0.097656 s0.41992 -0.153 0.55664 -0.26367 s0.23112 -0.24251 0.2832 -0.39551 s0.078125 -0.31413 0.078125 -0.4834 z M136.08428125 15.8789 c0 -0.30599 -0.05208 -0.55177 -0.15625 -0.73731 s-0.26693 -0.32878 -0.48829 -0.42969 s-0.50781 -0.16764 -0.85938 -0.20019 s-0.77148 -0.048828 -1.2598 -0.048828 l-5.2344 0 l0 2.8418 l5.2344 0 c0.48828 0 0.9082 -0.016279 1.2598 -0.048828 s0.63802 -0.10091 0.85938 -0.20508 s0.38412 -0.24902 0.48829 -0.43457 s0.15625 -0.43132 0.15625 -0.7373 z M158.027796875 19.33594 c-1.1003 0.36458 -2.1989 0.62664 -3.2959 0.78614 s-2.2185 0.23926 -3.3643 0.23926 c-1.4648 0 -2.7686 -0.15788 -3.9111 -0.47363 s-2.1045 -0.77311 -2.8857 -1.3721 s-1.377 -1.3313 -1.7871 -2.1973 s-0.61523 -1.8457 -0.61523 -2.9395 c0 -1.0156 0.20671 -1.958 0.62012 -2.8271 s0.99932 -1.6243 1.7578 -2.2656 s1.6748 -1.1426 2.749 -1.5039 s2.2722 -0.54199 3.5938 -0.54199 c1.2175 0 2.3323 0.16438 3.3447 0.49316 s1.8815 0.81543 2.6074 1.46 s1.2891 1.4388 1.6895 2.3828 s0.60059 2.0313 0.60059 3.2617 l0 0.89844 l-13.223 0 c0.11719 0.42317 0.31087 0.81055 0.58105 1.1621 s0.6364 0.65104 1.0986 0.89844 s1.0303 0.43945 1.7041 0.57617 s1.4795 0.20508 2.417 0.20508 c0.66406 0 1.3151 -0.040693 1.9531 -0.12207 s1.2337 -0.1888 1.7871 -0.32227 s1.053 -0.28158 1.499 -0.44435 s0.80566 -0.32553 1.0791 -0.48829 l0 3.1348 z M155.527796875 12.0801 c-0.032549 -0.33203 -0.13183 -0.67548 -0.29784 -1.0303 s-0.42806 -0.67545 -0.78613 -0.9619 s-0.82683 -0.52246 -1.4063 -0.70801 s-1.3021 -0.27832 -2.168 -0.27832 c-0.8138 0 -1.5169 0.10091 -2.1094 0.30273 s-1.0889 0.45248 -1.4893 0.75196 s-0.71126 0.62175 -0.93262 0.9668 s-0.36459 0.66406 -0.4297 0.95703 l9.6191 0 z M173.799265625 20 l0 -1.3184 c-0.46224 0.25391 -0.95865 0.47852 -1.4893 0.67383 s-1.0823 0.36133 -1.6553 0.49805 s-1.1638 0.23926 -1.7725 0.30762 s-1.2224 0.10254 -1.8408 0.10254 c-0.72266 0 -1.4209 -0.068359 -2.0947 -0.20508 s-1.2712 -0.35808 -1.792 -0.66406 s-0.93912 -0.70638 -1.2549 -1.2012 s-0.47363 -1.1003 -0.47363 -1.8164 c0 -0.90495 0.24739 -1.6585 0.74219 -2.2607 s1.25 -1.0954 2.2656 -1.4795 s2.2998 -0.68033 3.8525 -0.88866 s3.3903 -0.37109 5.5127 -0.48828 l0 -0.2832 c0 -0.22136 -0.058594 -0.44108 -0.17578 -0.65918 s-0.3304 -0.41016 -0.63965 -0.57617 s-0.73242 -0.3011 -1.2695 -0.40527 s-1.2224 -0.15625 -2.0557 -0.15625 c-0.65755 0 -1.3069 0.03418 -1.9482 0.10254 s-1.2598 0.16113 -1.8555 0.27832 s-1.1604 0.25391 -1.6943 0.41016 s-1.0188 0.31901 -1.4551 0.48828 l0 -3.2227 c0.45573 -0.11719 0.9668 -0.23112 1.5332 -0.3418 s1.1556 -0.2067 1.7676 -0.28808 s1.2305 -0.14648 1.8555 -0.19531 s1.2239 -0.073242 1.7969 -0.073242 c1.1263 0 2.1647 0.092773 3.1152 0.27832 s1.7692 0.47363 2.4561 0.86426 s1.2239 0.88542 1.6113 1.4844 s0.58105 1.3118 0.58105 2.1387 l0 8.8965 l-3.623 0 z M173.799265625 13.876999999999999 c-1.3933 0.05208 -2.5765 0.12693 -3.5498 0.22459 s-1.7822 0.21159 -2.4268 0.3418 s-1.1507 0.27018 -1.5186 0.41991 s-0.64291 0.30273 -0.82521 0.45898 s-0.2946 0.3125 -0.33691 0.46875 s-0.063477 0.29948 -0.063477 0.42969 c0 0.15625 0.042314 0.30762 0.12695 0.4541 s0.23275 0.27507 0.44435 0.38574 s0.49316 0.19856 0.84473 0.26367 s0.79427 0.097656 1.3281 0.097656 c0.59245 0 1.1719 -0.045576 1.7383 -0.13672 s1.1035 -0.21646 1.6113 -0.37597 s0.98467 -0.3483 1.4307 -0.5664 s0.84473 -0.45084 1.1963 -0.69823 l0 -1.7676 z M194.345890625 20 l0.000038147 -7.5195 c0 -0.5013 -0.042314 -0.9554 -0.12695 -1.3623 s-0.24252 -0.75521 -0.47364 -1.0449 s-0.55339 -0.51433 -0.9668 -0.67383 s-0.94563 -0.23926 -1.5967 -0.23926 c-0.49479 0 -1.014 0.066729 -1.5576 0.2002 s-1.0823 0.31088 -1.6162 0.53224 s-1.0433 0.47852 -1.5283 0.77148 s-0.91635 0.59896 -1.2939 0.91797 l0 8.418 l-3.623 0 l0 -13.418 l3.623 0 l0 1.8359 c0.45573 -0.26042 0.94076 -0.51921 1.4551 -0.77637 s1.0612 -0.4899 1.6406 -0.69823 s1.1946 -0.3776 1.8457 -0.5078 s1.3379 -0.19531 2.0605 -0.19531 c0.90495 0 1.7139 0.10905 2.4268 0.32715 s1.3167 0.52734 1.8115 0.92773 s0.87402 0.88542 1.1377 1.4551 s0.39551 1.2061 0.39551 1.9092 l0 9.1406 l-3.6133 0 z"/></g>
			</g>
		</svg>
	